<svg xmlns="http://www.w3.org/2000/svg" xmlns:xlink="http://www.w3.org/1999/xlink" version="1.1" x="0px" y="0px" viewBox="0 0 65 81.25" enable-background="new 0 0 65 65" xml:space="preserve"><path d="M62.842,34.77c-0.079-0.098-0.162-0.201-0.246-0.312c-0.038-0.051-0.082-0.097-0.132-0.136  c-0.325-0.261-1.105-0.747-2.091-1.355c-0.137-0.084-0.265-0.163-0.376-0.231c0.071-0.212,0.105-0.472-0.021-0.722  c-0.293-0.719-0.952-1.575-2.428-1.575c-0.201,0-0.403,0.016-0.6,0.042c0.298-0.192,0.602-0.421,0.834-0.749  c0.188-0.224,0.362-0.628-0.037-1.198c0,0,0.001-0.001,0.002-0.001c0.195-0.149,0.463-0.354,0.638-0.705  c0.014-0.027,0.025-0.055,0.035-0.083c0.457-0.036,1.058-0.132,1.397-0.7c0.399-0.662,0.095-1.403-0.127-1.944  c-0.084-0.204-0.17-0.415-0.205-0.608c-0.25-1.003-0.3-1.758-0.358-2.632c-0.033-0.511-0.069-1.046-0.141-1.572  c0-0.072-0.008-0.147-0.027-0.224c0.165-0.129,0.313-0.303,0.395-0.545c0.52-1.073,0.39-1.774,0.312-2.197  c-0.002-0.013-0.005-0.025-0.007-0.037c0.179-0.093,0.605-0.258,1.614-0.533c0.065,0.025,0.182,0.093,0.263,0.14  c0.362,0.208,0.86,0.486,1.459,0.183c0.978-0.559,1.105-2.239,0.473-6.2c-0.058-0.364-0.372-0.632-0.74-0.632h-0.209  c-0.046,0-0.093,0.004-0.138,0.013c-0.278,0.052-0.584,0.121-0.908,0.194c-0.838,0.188-1.787,0.402-2.651,0.402  c-0.775,0-1.353-0.173-1.782-0.545c-0.074-0.072-0.198-0.364-0.271-0.539c-0.208-0.494-0.522-1.239-1.288-1.239  c-0.153,0-0.306,0.034-0.454,0.1c-0.298,0.114-0.507,0.323-0.661,0.478c-0.016,0.016-0.034,0.034-0.052,0.051  c-0.344-0.527-1.032-0.589-1.526-0.589l-0.189,0.004c-0.669,0-1.199,0.361-1.626,0.651c-0.281,0.191-0.547,0.372-0.758,0.398  c-0.183,0.023-0.187,0.073-0.422-0.225c-0.278-0.353-0.743-0.942-1.894-0.942c-0.709,0-1.649,0.225-2.901,0.698  c-2.071,0.872-5.793,2.582-7.445,4.234c-0.8,0.8-1.313,1.655-1.81,2.482c-0.644,1.071-1.251,2.083-2.432,2.835  c-0.664,0.398-1.292,0.576-2.036,0.576c-0.51,0-1.037-0.083-1.595-0.169c-0.532-0.083-1.081-0.168-1.68-0.198  c-0.698-0.043-1.415-0.087-2.127-0.087c-1.269,0-2.276,0.139-3.17,0.437c-0.523,0.174-0.831,0.56-1.079,0.869  c-0.137,0.172-0.279,0.349-0.398,0.389c-1.329,0.475-3.238,0.258-5.045-0.041c-1.353-0.223-2.81-0.444-4.065-0.313  c-1.046,0.095-1.795,0.48-2.457,0.82c-0.899,0.461-1.455,0.782-2.666,0.296c0.156-0.273,0.573-0.717,0.816-0.976  c0.612-0.651,1.095-1.166,0.969-1.789c-0.062-0.305-0.27-0.557-0.505-0.658c-0.429-0.245-1.061-0.463-1.792-0.717  c-0.65-0.225-1.387-0.479-2.025-0.774c-0.184-0.084-0.394-0.091-0.583-0.02c-0.189,0.073-0.341,0.219-0.421,0.405  c-0.227,0.53-0.193,1.068-0.164,1.543c0.018,0.296,0.036,0.577-0.018,0.777c-0.098,0.081-0.322,0.165-0.506,0.234  c-0.468,0.176-1.108,0.417-1.392,1.079c-0.922,1.976,1.298,6.716,2.655,7.845c0.152,0.152,0.366,0.271,1.913,1.059  c1.028,0.524,2.392,1.219,2.992,1.598c-0.075,0.805-1.348,3.245-1.763,3.787c-0.108,0.082-0.202,0.15-0.285,0.207  c0.021-0.241,0.008-0.497-0.196-0.726c-0.142-0.16-0.362-0.259-0.577-0.259c-0.539,0-0.676,0.227-1.988,2.398  c-0.414,0.69-0.043,1.358,0.202,1.801c0.084,0.151,0.178,0.32,0.212,0.438c-0.002,0.132-0.012,0.263-0.021,0.395  c-0.025,0.373-0.054,0.796,0.036,1.242c0.013,0.065,0.035,0.13,0.065,0.189c0.163,0.324,0.475,0.511,0.856,0.511  c0.05,0,0.104-0.004,0.18-0.012c0.165,0.118,0.245,0.208,0.292,0.373c0.126,0.327,0.12,0.387-0.459,0.851  c-0.33,0.265-0.703,0.563-0.958,1.021c-0.062,0.112-0.095,0.237-0.095,0.365c0,0.865,3.409,3.16,3.444,3.178  c0.472,0.235,0.939,0.235,1.314,0.235c0.203,0,0.432,0,0.485,0.03c0.451,0.301,1.086,1.2,1.596,1.922  c0.333,0.472,0.65,0.921,0.941,1.252c0.073,0.775,0.19,3.73,0.124,5.058c-0.158,0.284-0.16,0.647,0.008,0.983  c0.128,0.256,0.388,0.415,0.671,0.415c0.018,0,0.035-0.001,0.053-0.002c0.227-0.016,0.43-0.134,0.558-0.313h0.747  c0.054,0,0.175,0.028,0.272,0.051c0.181,0.042,0.386,0.089,0.611,0.089c0.376,0,0.64-0.137,0.812-0.278  c0.387-0.244,0.551-0.653,0.673-0.959c0.04-0.099,0.099-0.247,0.124-0.272c0.497-0.316,1.18-0.349,1.904-0.383  c0.625-0.03,1.272-0.061,1.913-0.275c2.041-0.729,3.082-1.558,4.089-2.36c0.425-0.339,0.831-0.662,1.325-0.986  c0.311,0.219,0.846,0.512,1.344,0.333c0.476-0.115,0.795-0.459,1.033-0.714c0.059-0.063,0.141-0.151,0.2-0.204  c0.006,0,0.012,0.001,0.018,0.002c0.141,0.018,0.325,0.285,0.503,0.544c0.226,0.327,0.479,0.695,0.872,0.958  c0.239,0.229,0.628,0.278,0.909,0.173c0.182,0.257,0.478,0.64,0.986,0.64c0.062,0,0.186-0.019,0.246-0.033  c0.562-0.143,0.785-0.645,0.918-0.944c0.017-0.04,0.039-0.09,0.06-0.133c0.757-0.133,1.749,0.255,2.611,0.674  c0.136,0.771,0.72,0.842,0.871,0.842c0.002,0,0.004,0,0.005,0c1.241,0.091,2.651-0.71,4.019-1.474  c0.635-0.355,1.235-0.69,1.691-0.857c0.302-0.075,1.065-0.311,3.344-1.045c0.082-0.026,0.159-0.067,0.229-0.12  c0.459-0.355,0.722-0.789,0.78-1.29c0.115-0.99-0.622-1.901-1.272-2.704c-0.292-0.361-0.781-0.965-0.813-1.112  c0.001-0.001,0.125-0.144,0.714-0.273c0.289,0.001,0.722,0.008,1.132,0.091c0.054,0.011,0.124,0.014,0.159,0.015  c0.406-0.016,0.759-0.333,0.759-0.75c0-0.191-0.071-0.366-0.189-0.499c-0.019-0.036-0.032-0.066-0.042-0.092  c0.122-0.059,0.329-0.126,0.478-0.175c0.457-0.149,0.976-0.318,1.384-0.804c0.332-0.498,0.293-1.05,0.262-1.493  c-0.012-0.163-0.033-0.468,0.063-0.586c0.001,0,0.042-0.025,0.211-0.025c0.111,0,0.228,0.01,0.346,0.019  c0.52,0.035,1.013,0.021,1.401-0.146c0.101-0.043,0.19-0.107,0.263-0.189l1.681-1.878c1.033-0.502,1.662-0.215,2.601,0.313  c0.607,0.342,1.294,0.728,2.227,0.944c0.087,0.033,0.179,0.053,0.268,0.053c0.001,0,0.001,0,0.001,0c0.22,0,0.433-0.099,0.575-0.267  c0.094-0.11,0.147-0.298,0.163-0.475c0.18-0.141,0.355-0.289,0.53-0.438c0.428-0.363,0.832-0.707,1.241-0.86  c0.272-0.092,0.57-0.102,0.916-0.113c0.262-0.008,0.523-0.019,0.785-0.058h0.15c0.241,0,0.468-0.116,0.608-0.312  s0.18-0.447,0.104-0.676C63.32,35.362,63.088,35.074,62.842,34.77z M15.257,55.62v-0.75c0,0,0.001,0,0.001,0L15.257,55.62z   M36.85,52.248l-0.127-0.754c0.044,0,0.087,0.006,0.127,0.015V52.248z M60.374,35.459c-0.681,0.256-1.204,0.701-1.711,1.132  c-0.206,0.175-0.411,0.351-0.626,0.507c-0.055,0.033-0.112,0.076-0.167,0.131c-0.468-0.172-0.871-0.398-1.265-0.62  c-0.686-0.386-1.395-0.784-2.302-0.784c-0.586,0-1.189,0.166-1.845,0.508c-0.08,0.042-0.152,0.098-0.212,0.165l-1.637,1.828  c-0.148,0.021-0.375,0.01-0.576-0.005c-0.155-0.012-0.309-0.022-0.455-0.022c-0.2,0-0.807,0-1.223,0.42  c-0.637,0.532-0.583,1.293-0.547,1.797c0.013,0.182,0.034,0.484,0.04,0.484c-0.08,0.094-0.439,0.211-0.654,0.281  c-0.54,0.176-1.212,0.395-1.459,1.057c-0.034,0.092-0.059,0.187-0.071,0.283c-0.214-0.006-0.376-0.021-0.53,0.012  c-0.669,0.138-1.592,0.413-1.881,1.222c-0.323,0.904,0.371,1.763,1.044,2.593c0.418,0.516,0.99,1.223,0.948,1.586  c-0.004,0.025-0.012,0.095-0.121,0.202c-1.361,0.438-2.853,0.909-3.1,0.973c-0.043,0.008-0.084,0.019-0.124,0.033  c-0.577,0.206-1.24,0.576-1.941,0.969c-0.937,0.523-1.981,1.106-2.766,1.254c-0.066-0.188-0.195-0.39-0.449-0.518  c-0.966-0.482-2.091-0.997-3.227-0.997c-0.3,0-0.588,0.037-0.84,0.106c-0.4,0.099-0.629,0.38-0.776,0.643  c-0.125-0.13-0.278-0.248-0.476-0.314l0,0.002c-0.261-0.085-0.495-0.055-0.672,0.011c-0.106-0.115-0.212-0.27-0.322-0.43  c-0.305-0.443-0.719-1.045-1.483-1.172c-0.107-0.028-0.216-0.043-0.324-0.043c-0.594,0-0.971,0.405-1.247,0.702  c-0.085,0.091-0.225,0.241-0.274,0.272c-0.045-0.029-0.1-0.067-0.141-0.097c-0.228-0.161-0.512-0.362-0.881-0.362  c-0.19,0-0.373,0.056-0.505,0.145c-0.684,0.417-1.219,0.845-1.738,1.258c-0.953,0.759-1.853,1.477-3.644,2.116  c-0.43,0.144-0.947,0.168-1.495,0.194c-0.846,0.04-1.806,0.085-2.573,0.578c-0.462,0.232-0.644,0.687-0.777,1.018  c-0.039,0.099-0.095,0.255-0.057,0.234c-0.032,0.017-0.063,0.035-0.092,0.055c-0.061-0.009-0.145-0.028-0.215-0.045  c-0.181-0.041-0.385-0.089-0.61-0.089H13.83c0.021-1.612,0.018-5.083-0.36-5.496c-0.016-0.018-0.032-0.033-0.048-0.048  c-0.243-0.251-0.573-0.72-0.922-1.214c-0.642-0.91-1.306-1.851-2.02-2.325c-0.745-0.445-1.607-0.182-1.893-0.319  c-0.251-0.157-1.67-1.264-2.388-1.887c0.072-0.061,0.149-0.122,0.227-0.186c0.545-0.437,1.458-1.167,0.949-2.474  c-0.176-0.697-0.676-1.032-1.123-1.323c-0.08-0.04-0.166-0.069-0.256-0.088c0.003-0.11,0.011-0.224,0.019-0.341  c0.013-0.19,0.025-0.381,0.025-0.571c0-0.041-0.003-0.083-0.01-0.124c-0.062-0.37-0.237-0.686-0.392-0.964  c-0.063-0.114-0.153-0.276-0.186-0.37c0.089-0.147,0.21-0.348,0.341-0.561c0.519,0.387,1.195,0.286,2.429-0.689  c0.298-0.297,0.999-1.554,1.441-2.495c0.865-1.84,0.992-2.816,0.439-3.369c-0.025-0.025-0.052-0.049-0.081-0.07  c-0.5-0.375-1.779-1.036-3.399-1.862c-0.649-0.331-1.457-0.743-1.583-0.829C3.889,26.167,2.224,22.111,2.741,21  c0.041-0.096,0.323-0.202,0.55-0.288c0.417-0.156,0.935-0.352,1.264-0.845c0.025-0.039,0.047-0.079,0.065-0.121  c0.227-0.529,0.193-1.067,0.164-1.542c-0.002-0.025-0.003-0.051-0.005-0.077c0.413,0.158,0.826,0.3,1.209,0.434  c0.372,0.128,0.731,0.253,1.041,0.376c-0.105,0.118-0.221,0.241-0.316,0.342c-0.708,0.753-1.439,1.532-1.252,2.395  c0.065,0.304,0.275,0.72,0.896,0.977c0.6,0.25,1.153,0.371,1.691,0.371c0.927,0,1.622-0.356,2.293-0.702  c0.592-0.304,1.151-0.591,1.919-0.661c1.14-0.121,2.36,0.084,3.674,0.3c1.087,0.18,2.212,0.365,3.324,0.365  c0.924,0,1.731-0.128,2.454-0.387c0.524-0.174,0.832-0.56,1.08-0.869c0.137-0.171,0.279-0.349,0.382-0.383  c0.736-0.246,1.592-0.36,2.695-0.36c0.681,0,1.366,0.042,2.043,0.084c0.529,0.026,1.04,0.106,1.533,0.183  c0.59,0.092,1.2,0.187,1.826,0.187c1.018,0,1.91-0.251,2.824-0.8c1.496-0.952,2.225-2.165,2.93-3.339  c0.471-0.784,0.915-1.524,1.584-2.193c1.075-1.075,3.614-2.5,6.94-3.901c1.039-0.393,1.828-0.591,2.346-0.591  c0.423,0,0.503,0.101,0.717,0.371c0.236,0.3,0.634,0.803,1.486,0.803c0.089,0,0.185-0.005,0.293-0.018  c0.575-0.072,1.025-0.378,1.422-0.648c0.295-0.201,0.574-0.391,0.811-0.392l0.16-0.003c0.002,0,0.003,0,0.005,0  c-0.073,0.188-0.113,0.438,0.041,0.704c0.134,0.231,0.412,0.387,0.68,0.387c0.253,0,0.46-0.084,1.278-0.526  c0.234-0.095,0.413-0.249,0.552-0.384c0.016,0.036,0.03,0.071,0.044,0.102c0.165,0.392,0.353,0.837,0.688,1.105  c0.696,0.604,1.596,0.897,2.747,0.897c1.031,0,2.067-0.233,2.981-0.439c0.101-0.023,0.199-0.045,0.296-0.066  c0.346,2.395,0.281,3.36,0.188,3.746c-0.254-0.147-0.601-0.347-1.02-0.347c-0.084,0-0.168,0.008-0.301,0.036  c-2.06,0.556-3.038,0.887-2.774,2.313c0.06,0.322,0.121,0.655-0.208,1.313c-0.001,0.002-0.002,0.004-0.003,0.006  c-0.05,0.023-0.119,0.052-0.171,0.072c-0.255,0.103-0.603,0.243-0.823,0.574c-0.081,0.123-0.125,0.268-0.125,0.415  c0,0.286,0.117,0.637,0.679,0.827c0.042,0.415,0.067,0.792,0.092,1.157c0.06,0.907,0.116,1.763,0.387,2.838  c0.051,0.302,0.17,0.592,0.285,0.873c0.065,0.161,0.167,0.407,0.199,0.559c-0.096,0.015-0.232,0.024-0.334,0.031  c-0.332,0.021-0.743,0.048-1.111,0.253c-0.181,0.091-0.326,0.25-0.389,0.446c-0.057,0.179-0.052,0.347,0.015,0.503  c-0.204,0.168-0.435,0.4-0.515,0.732c-0.126,0.375-0.007,0.688,0.134,0.913c-0.115,0.084-0.251,0.168-0.392,0.255  c-0.383,0.236-0.818,0.503-1.093,0.919c-0.435,0.579-0.771,1.101-0.505,1.633c0.071,0.145,0.298,0.48,0.833,0.48  c0.259,0,0.553-0.08,0.923-0.182c0.443-0.122,0.995-0.273,1.479-0.273c0.463,0,0.75,0.131,0.953,0.473  c-0.08,0.156-0.18,0.363-0.18,0.617c0,0.197,0.078,0.388,0.217,0.527c0.097,0.098,0.175,0.148,1.047,0.688  c0.511,0.315,1.225,0.757,1.652,1.044C60.968,35.311,60.68,35.356,60.374,35.459z"/><text x="0" y="80" fill="#000000" font-size="5px" font-weight="bold" font-family="'Helvetica Neue', Helvetica, Arial-Unicode, Arial, Sans-serif"></text><text x="0" y="85" fill="#000000" font-size="5px" font-weight="bold" font-family="'Helvetica Neue', Helvetica, Arial-Unicode, Arial, Sans-serif"></text></svg>