<svg xmlns="http://www.w3.org/2000/svg" xmlns:xlink="http://www.w3.org/1999/xlink" version="1.1" x="0px" y="0px" viewBox="0 0 65 81.25" enable-background="new 0 0 65 65" xml:space="preserve"><path d="M62.647,34.927c-0.081-0.1-0.166-0.205-0.252-0.319c-0.025-0.033-0.055-0.063-0.088-0.09  c-0.34-0.271-1.297-0.863-2.066-1.338c-0.214-0.133-0.409-0.252-0.555-0.342c0.095-0.2,0.188-0.471,0.058-0.729  c-0.264-0.647-0.859-1.419-2.196-1.419c-0.602,0-1.216,0.156-1.69,0.285c0.153-0.206,0.423-0.372,0.708-0.547  c0.362-0.223,0.772-0.476,0.98-0.805c0.281-0.282,0.251-0.636-0.09-1.053c-0.017-0.021-0.037-0.046-0.056-0.07  c0.045-0.049,0.123-0.109,0.194-0.164c0.187-0.143,0.417-0.32,0.566-0.619c0.032-0.064,0.05-0.135,0.053-0.208  c0.012,0,0.023-0.001,0.035-0.002c0.439-0.028,1.041-0.067,1.354-0.59c0.335-0.555,0.069-1.201-0.144-1.721  c-0.089-0.216-0.181-0.44-0.216-0.643c-0.256-1.025-0.307-1.791-0.365-2.676c-0.034-0.507-0.069-1.037-0.142-1.588  c0-0.13-0.033-0.234-0.087-0.316c0.198-0.116,0.386-0.282,0.472-0.546c0.492-1.008,0.371-1.664,0.298-2.058  c-0.015-0.08-0.034-0.188-0.043-0.19c0.076-0.099,0.47-0.298,1.89-0.682c0.084,0,0.264,0.104,0.395,0.18  c0.335,0.193,0.743,0.42,1.21,0.182c0.857-0.49,0.955-2.156,0.351-5.943c-0.039-0.243-0.248-0.421-0.494-0.421l-0.301,0.009  c-0.275,0.051-0.578,0.119-0.898,0.191c-0.851,0.192-1.815,0.409-2.707,0.409c-0.838,0-1.469-0.193-1.943-0.604  c-0.111-0.089-0.244-0.403-0.341-0.633c-0.204-0.484-0.458-1.086-1.058-1.086c-0.131,0-0.262,0.032-0.324,0.069  c-0.27,0.09-0.461,0.281-0.614,0.435c-0.066,0.065-0.176,0.176-0.302,0.227c-0.011,0.005-0.021,0.011-0.031,0.017  c-0.017-0.064-0.043-0.128-0.08-0.192c-0.268-0.462-0.894-0.516-1.342-0.516l-0.189,0.004c-0.592,0-1.066,0.323-1.485,0.608  c-0.307,0.209-0.597,0.406-0.869,0.44c-0.325,0.036-0.404-0.011-0.647-0.318c-0.266-0.337-0.668-0.847-1.697-0.847  c-0.679,0-1.59,0.22-2.805,0.679c-2.054,0.865-5.742,2.558-7.365,4.18c-0.778,0.778-1.283,1.62-1.771,2.434  c-0.659,1.098-1.282,2.135-2.518,2.921c-0.706,0.423-1.373,0.612-2.165,0.612c-0.529,0-1.066-0.083-1.634-0.172  c-0.525-0.082-1.068-0.167-1.657-0.196c-0.693-0.043-1.405-0.086-2.112-0.086c-1.242,0-2.224,0.135-3.091,0.424  c-0.453,0.151-0.724,0.489-0.962,0.788c-0.175,0.218-0.326,0.407-0.509,0.468c-1.38,0.493-3.333,0.273-5.169-0.029  c-1.336-0.22-2.757-0.441-4.002-0.311c-0.998,0.091-1.724,0.464-2.365,0.793c-0.938,0.482-1.733,0.788-2.934,0.288  c-0.115-0.047-0.15-0.086-0.153-0.086c-0.032-0.237,0.65-0.963,0.942-1.274c0.584-0.623,1.006-1.072,0.906-1.568  c-0.046-0.229-0.198-0.411-0.384-0.49c-0.41-0.234-1.031-0.449-1.75-0.698C5.743,17.153,5,16.896,4.351,16.596  c-0.122-0.057-0.263-0.061-0.389-0.013c-0.126,0.048-0.227,0.146-0.28,0.27c-0.204,0.475-0.172,0.982-0.144,1.43  c0.023,0.368,0.044,0.716-0.021,0.892c-0.106,0.159-0.377,0.261-0.664,0.369c-0.449,0.169-1.009,0.379-1.253,0.951  c-0.863,1.851,1.313,6.486,2.605,7.563c0.125,0.125,0.366,0.257,1.85,1.013c1.103,0.562,2.59,1.32,3.133,1.688  c0.093,0.692-1.451,3.659-1.803,4.07c-0.402,0.313-0.651,0.454-0.793,0.518c0.004-0.115,0.02-0.252,0.029-0.327  c0.032-0.267,0.059-0.496-0.117-0.693c-0.095-0.106-0.247-0.175-0.39-0.175c-0.379,0-0.462,0.105-1.774,2.277  c-0.34,0.566-0.024,1.135,0.207,1.551c0.11,0.199,0.225,0.405,0.245,0.481c0,0.163-0.011,0.325-0.022,0.488  c-0.025,0.375-0.051,0.763,0.032,1.177c0.009,0.044,0.023,0.086,0.043,0.126c0.056,0.112,0.23,0.373,0.632,0.373  c0.057,0,0.117-0.006,0.249-0.021c0.245,0.168,0.391,0.292,0.457,0.542c0.199,0.516,0.029,0.684-0.536,1.136  c-0.312,0.25-0.665,0.532-0.896,0.948c-0.041,0.074-0.063,0.158-0.063,0.243c0,0.65,3.272,2.938,3.306,2.954  c0.74,0.37,1.545,0.115,1.826,0.281c0.49,0.326,1.112,1.208,1.661,1.986c0.35,0.495,0.682,0.966,0.977,1.289  c0.077,0.672,0.208,3.877,0.13,5.24c-0.174,0.256-0.123,0.579-0.015,0.796c0.085,0.17,0.259,0.276,0.447,0.276  c0.012,0,0.023,0,0.036-0.001c0.192-0.014,0.358-0.137,0.429-0.313h0.893c0.082,0,0.208,0.029,0.329,0.057  c0.39,0.091,0.905,0.121,1.221-0.149c0.327-0.2,0.47-0.558,0.586-0.848c0.049-0.123,0.131-0.328,0.222-0.391  c0.552-0.352,1.269-0.386,2.027-0.422c0.608-0.029,1.238-0.059,1.841-0.261c2.001-0.714,3.026-1.531,4.018-2.32  c0.472-0.377,0.92-0.733,1.485-1.092c0.045,0.029,0.097,0.066,0.137,0.095c0.289,0.205,0.727,0.449,1.13,0.3  c0.41-0.095,0.693-0.398,0.922-0.646c0.1-0.107,0.268-0.287,0.329-0.303c0.003,0,0.1,0.023,0.104,0.023  c0.239,0.03,0.414,0.267,0.677,0.65c0.216,0.313,0.458,0.664,0.821,0.903c0.215,0.224,0.595,0.203,0.829,0.045  c0.034,0.044,0.072,0.099,0.1,0.138c0.17,0.243,0.404,0.576,0.812,0.576c0.042,0,0.144-0.016,0.184-0.026  c0.444-0.112,0.622-0.512,0.751-0.803c0.042-0.093,0.103-0.233,0.093-0.243c0.861-0.232,2.052,0.234,3.037,0.72  c0.063,0.66,0.467,0.735,0.663,0.759c1.157,0.067,2.607-0.732,3.88-1.443c0.649-0.363,1.264-0.706,1.74-0.878  c0.254-0.063,0.973-0.28,3.34-1.044c0.055-0.018,0.106-0.045,0.152-0.08c0.404-0.313,0.635-0.689,0.686-1.121  c0.104-0.886-0.568-1.715-1.219-2.518c-0.368-0.455-0.925-1.143-0.838-1.385c0.009-0.024,0.106-0.236,0.907-0.408  c0.298,0,0.761,0.006,1.208,0.096c0.036,0.008,0.074,0.01,0.109,0.01c0.263,0.014,0.509-0.221,0.509-0.5  c0-0.138-0.055-0.263-0.146-0.353c-0.135-0.252-0.111-0.344-0.111-0.345c0.036-0.098,0.468-0.238,0.676-0.306  c0.426-0.14,0.908-0.297,1.253-0.705c0.284-0.427,0.249-0.932,0.22-1.337c-0.029-0.427-0.029-0.64,0.135-0.779  c0.052-0.052,0.135-0.1,0.389-0.1c0.117,0,0.24,0.01,0.364,0.019c0.476,0.036,0.936,0.022,1.284-0.126  c0.066-0.029,0.127-0.072,0.175-0.127l1.714-1.913c1.15-0.575,1.875-0.266,2.876,0.298c0.598,0.335,1.271,0.715,2.18,0.923  c0.063,0.026,0.13,0.042,0.192,0.042h0.001c0.146,0,0.29-0.066,0.385-0.179c0.073-0.087,0.105-0.285,0.105-0.438  c0.21-0.158,0.414-0.331,0.617-0.504c0.444-0.378,0.864-0.735,1.323-0.907c0.308-0.103,0.638-0.113,0.986-0.125  c0.273-0.01,0.545-0.02,0.735-0.059h0.209c0.161,0,0.312-0.077,0.405-0.208c0.095-0.13,0.12-0.298,0.069-0.45  C63.098,35.484,62.879,35.214,62.647,34.927z M36.847,52.234c0.001,0,0.002,0,0.003,0v0.014L36.847,52.234z"/><text x="0" y="80" fill="#000000" font-size="5px" font-weight="bold" font-family="'Helvetica Neue', Helvetica, Arial-Unicode, Arial, Sans-serif"></text><text x="0" y="85" fill="#000000" font-size="5px" font-weight="bold" font-family="'Helvetica Neue', Helvetica, Arial-Unicode, Arial, Sans-serif"></text></svg>