<?xml version="1.0" standalone="no"?>
<!DOCTYPE svg PUBLIC "-//W3C//DTD SVG 20010904//EN"
 "http://www.w3.org/TR/2001/REC-SVG-20010904/DTD/svg10.dtd">
<svg version="1.0" xmlns="http://www.w3.org/2000/svg"
 width="1280.000000pt" height="1280.000000pt" viewBox="0 0 1280.000000 1280.000000"
 preserveAspectRatio="xMidYMid meet">
<metadata>
Created by potrace 1.15, written by Peter Selinger 2001-2017
</metadata>
<g transform="translate(0.000000,1280.000000) scale(0.100000,-0.100000)"
fill="#000000" stroke="none">
<path d="M872 10427 c-6 -7 -23 -46 -37 -87 -15 -41 -37 -102 -50 -135 -14
-36 -25 -86 -26 -122 -1 -34 -5 -66 -8 -71 -3 -4 -22 -8 -41 -8 -32 1 -35 -2
-51 -44 l-16 -44 -111 -27 c-61 -15 -115 -30 -120 -33 -5 -3 -17 -22 -27 -42
-16 -35 -25 -99 -44 -331 -6 -77 -11 -97 -34 -126 -38 -50 -35 -88 8 -135 28
-32 36 -49 41 -98 10 -99 22 -125 91 -191 35 -35 68 -63 71 -63 34 -1 38 -22
57 -287 7 -95 65 -190 162 -264 43 -32 57 -38 82 -33 36 7 53 -4 87 -58 19
-30 34 -40 81 -54 41 -12 73 -31 108 -64 28 -26 65 -57 83 -69 20 -14 32 -31
32 -45 0 -32 46 -119 86 -163 20 -21 49 -63 64 -94 39 -77 73 -103 124 -95 32
6 43 3 62 -15 16 -15 21 -27 15 -38 -5 -9 -12 -36 -16 -61 -8 -48 -35 -109
-57 -127 -7 -7 -31 -13 -53 -15 -37 -3 -41 -6 -53 -43 -6 -22 -17 -66 -23 -97
l-10 -58 -67 -20 c-37 -10 -77 -27 -90 -35 -25 -18 -62 -87 -81 -150 -20 -67
-31 -82 -94 -130 l-59 -47 -35 19 c-20 10 -46 35 -60 56 -32 51 -56 46 -105
-18 -33 -43 -42 -50 -69 -47 -24 3 -40 -5 -78 -40 -27 -24 -67 -58 -89 -75
-34 -27 -42 -42 -52 -86 -12 -60 -9 -74 33 -136 30 -44 30 -45 17 -100 -7 -31
-14 -83 -16 -116 -1 -33 -11 -89 -23 -125 -26 -82 -28 -171 -3 -192 9 -9 46
-32 82 -52 36 -19 83 -53 104 -75 36 -36 38 -43 34 -83 -7 -56 -72 -196 -95
-204 -61 -20 -73 -29 -91 -67 -11 -23 -38 -62 -59 -87 -68 -77 -78 -117 -45
-177 9 -18 35 -67 56 -109 44 -84 138 -194 166 -194 11 0 34 -23 57 -57 43
-65 93 -103 135 -103 30 0 43 -8 87 -53 15 -15 39 -29 52 -30 13 0 30 -9 37
-19 10 -13 27 -18 62 -18 47 0 79 -14 130 -57 8 -7 30 -25 48 -39 18 -15 39
-38 46 -53 24 -47 56 -180 56 -234 0 -61 26 -111 67 -130 41 -17 44 -26 37
-100 -5 -54 -3 -72 11 -93 15 -24 21 -26 61 -20 41 5 45 4 54 -20 11 -28 12
-186 1 -224 -4 -16 -18 -29 -37 -35 -64 -21 -66 -26 -59 -159 4 -67 7 -170 8
-231 1 -66 7 -119 14 -132 18 -31 16 -50 -8 -83 -16 -20 -20 -38 -16 -62 2
-18 -2 -50 -10 -70 -8 -21 -12 -45 -9 -53 8 -21 67 -45 110 -45 19 0 54 -9 78
-19 64 -27 189 -51 268 -51 58 0 73 4 97 24 24 21 70 103 87 159 5 16 14 17
68 12 35 -3 87 -11 115 -17 50 -11 54 -10 92 17 39 26 43 27 130 20 82 -6 94
-5 124 14 44 27 44 27 52 -8 8 -37 51 -81 79 -81 12 0 35 14 52 31 16 17 41
40 56 51 l28 19 30 -21 c80 -57 151 -47 202 28 39 58 44 62 91 62 41 0 131 41
145 65 7 14 20 13 113 -9 l104 -24 48 20 c64 28 87 59 87 119 0 26 -4 59 -10
73 -14 37 4 34 95 -14 42 -22 87 -40 100 -40 22 0 55 23 55 39 0 4 20 30 44
59 l44 51 5 -29 c4 -16 18 -37 33 -47 14 -10 43 -33 64 -51 41 -35 67 -39 108
-18 16 8 56 24 90 35 51 17 65 19 82 9 16 -10 24 -9 47 10 46 37 67 50 91 57
23 7 23 7 16 -64 -6 -64 -4 -74 19 -114 51 -87 94 -120 189 -145 94 -26 80
-14 248 -201 25 -27 35 -32 58 -27 33 8 61 40 69 78 7 36 7 36 97 53 74 14 76
14 128 -10 29 -14 71 -25 92 -25 33 0 44 -6 74 -40 34 -40 97 -80 127 -80 8 0
15 -7 15 -15 0 -29 47 -65 83 -65 76 0 92 -9 105 -55 17 -66 59 -101 135 -114
85 -15 98 -14 165 8 31 10 73 21 93 25 20 3 54 22 76 41 31 26 50 35 78 35 31
0 44 7 74 40 20 22 39 40 43 40 3 0 29 -16 58 -35 29 -19 62 -35 74 -35 12 0
41 14 65 32 35 26 46 29 60 20 59 -43 97 -40 124 10 14 26 35 40 98 67 l80 33
33 -38 c33 -38 35 -39 103 -39 66 0 74 2 129 41 57 40 62 42 136 42 112 0 129
13 256 197 23 34 42 66 42 71 0 6 -11 21 -25 34 -30 28 -32 68 -10 153 24 92
20 121 -21 167 -28 31 -38 51 -42 88 -5 54 -21 76 -74 103 -21 11 -38 23 -38
28 0 5 -2 15 -5 23 -3 7 10 31 29 52 19 20 38 46 41 56 6 18 21 23 139 45 l69
13 98 -46 c115 -52 132 -49 123 21 -4 29 1 62 15 104 12 34 21 78 21 97 0 29
4 35 28 40 15 4 79 0 142 -9 189 -25 173 -30 225 77 48 99 54 131 29 166 -21
31 -12 57 36 111 l40 44 44 -17 c45 -17 114 -32 198 -43 48 -5 48 -5 63 31 15
35 17 36 68 36 35 0 65 7 92 22 27 15 67 24 121 29 55 4 96 14 130 31 48 24
49 25 77 113 15 49 33 95 39 102 19 24 51 13 100 -33 47 -44 52 -46 98 -42 60
6 138 53 142 86 l3 23 46 -29 c25 -16 75 -39 112 -51 81 -27 127 -79 127 -145
1 -74 17 -93 139 -167 104 -63 214 -109 262 -109 11 0 44 25 73 55 51 54 54
55 97 49 29 -3 64 1 104 13 l60 19 32 -32 c51 -52 124 -57 140 -11 4 12 6 41
4 65 -1 23 1 42 6 42 4 0 37 -9 73 -20 72 -22 246 -28 281 -10 13 7 19 21 19
43 0 43 -139 251 -246 368 -43 48 -110 121 -147 163 -38 42 -86 85 -107 96
l-38 19 5 78 c4 61 0 90 -15 133 -95 264 -89 253 -144 265 -21 4 -30 14 -39
46 -19 60 -42 68 -220 74 -85 2 -157 9 -163 15 -7 7 -1 20 21 42 16 18 43 57
59 85 27 50 31 53 69 53 22 1 51 7 65 15 14 8 39 14 55 15 17 0 41 7 54 16 21
15 23 22 18 68 -3 28 -8 58 -12 68 -11 27 58 95 104 103 21 3 52 15 69 25 26
16 32 27 38 70 8 58 4 57 139 34 171 -29 173 -30 185 -2 9 19 7 37 -14 92 -29
76 -33 131 -11 160 17 23 19 64 5 101 -9 24 -4 89 16 185 15 73 15 107 -1 214
-15 107 -15 156 1 260 3 16 21 62 41 102 31 64 35 81 31 126 -4 33 -12 56 -23
64 -15 11 -15 16 -3 40 9 20 27 32 66 44 29 10 64 28 78 41 30 28 112 179 150
276 36 94 69 127 126 125 24 -1 60 -4 81 -8 64 -10 111 4 166 51 28 24 60 46
70 50 12 4 57 -10 113 -33 51 -22 119 -48 152 -58 l58 -18 30 34 c16 19 51 58
78 86 61 65 147 211 160 270 13 59 4 109 -28 157 -23 34 -26 51 -33 176 -4 77
-4 168 1 202 11 90 10 91 -139 81 -86 -5 -139 -4 -179 5 -31 7 -101 20 -155
30 -89 16 -101 16 -141 2 l-43 -16 -119 59 c-66 32 -149 69 -185 83 -80 31
-94 44 -168 160 -66 103 -91 168 -91 235 0 54 -33 125 -71 153 -35 26 -62 11
-88 -48 -26 -58 -49 -67 -170 -60 l-96 4 -31 68 c-32 72 -104 148 -151 159
-32 9 -69 -18 -83 -61 -13 -40 -3 -39 -175 -24 -94 8 -134 8 -161 -1 -36 -12
-37 -12 -93 42 -31 30 -72 66 -91 79 -19 12 -64 51 -100 84 -56 53 -78 66
-159 94 -72 26 -103 32 -139 28 -34 -4 -57 0 -84 14 -45 23 -60 23 -147 4 -36
-8 -114 -18 -172 -23 -102 -8 -111 -11 -245 -75 -110 -52 -153 -67 -204 -72
-35 -4 -103 -21 -150 -39 -138 -54 -148 -56 -335 -65 -229 -12 -299 -36 -422
-144 -49 -43 -77 -59 -135 -77 -74 -22 -265 -131 -275 -156 -3 -8 -51 -50
-107 -95 -107 -85 -162 -146 -173 -188 -10 -44 -105 -160 -130 -161 -16 0 -34
-18 -63 -60 -34 -50 -46 -60 -69 -60 -42 0 -182 -30 -212 -46 -15 -7 -50 -34
-80 -59 -53 -45 -54 -45 -109 -39 -39 4 -72 1 -115 -12 -35 -10 -91 -18 -135
-18 -63 0 -83 5 -120 26 -25 15 -78 36 -118 48 -51 16 -87 34 -118 61 -25 22
-55 39 -66 39 -12 0 -45 -12 -75 -26 l-53 -26 -48 20 c-27 12 -101 33 -166 48
l-117 27 -157 -18 c-291 -33 -261 -35 -387 30 -139 72 -249 115 -295 115 -26
0 -58 -15 -125 -60 -115 -77 -176 -100 -279 -105 -50 -2 -113 -14 -161 -29
-94 -30 -95 -30 -95 -11 0 8 -12 28 -27 45 -23 25 -40 32 -101 41 -41 6 -89
17 -108 25 -18 8 -86 23 -151 33 -148 25 -207 43 -307 93 -85 43 -235 78 -323
77 -49 -1 -119 22 -183 60 -56 32 -118 51 -215 66 -49 8 -120 19 -157 26 -56
10 -79 9 -147 -5 -45 -9 -96 -16 -114 -16 -48 -1 -106 -31 -176 -94 -35 -31
-72 -56 -82 -56 -10 0 -43 11 -73 24 -76 34 -211 73 -275 80 -29 3 -60 11 -69
18 -29 25 -45 83 -49 188 -4 95 -2 109 19 150 l23 45 75 8 c138 15 270 103
270 180 0 43 -22 72 -84 112 -46 30 -86 44 -201 74 -61 16 -201 107 -225 146
-36 58 -71 80 -161 100 -46 10 -88 22 -93 27 -15 12 -42 10 -54 -5z"/>
</g>
</svg>
